<svg width="19.000000" height="19.000000" viewBox="0 0 19 19" fill="none" xmlns="http://www.w3.org/2000/svg" xmlns:xlink="http://www.w3.org/1999/xlink">
	<desc>
			Created with Pixso.
	</desc>
	<defs>
		<clipPath id="clip11_8">
			<rect id="svg" width="19.000000" height="19.000000" fill="white" fill-opacity="0"/>
		</clipPath>
	</defs>
	<g clip-path="url(#clip11_8)">
		<path id="path" d="M10.98 0.59L18.1 0.59C18.59 0.59 19 1.02 19 1.53L19 7.8C19 8.34 18.59 8.74 18.1 8.74L10.98 8.74C10.46 8.74 10.09 8.34 10.09 7.8L10.09 1.53C10.09 1.02 10.46 0.59 10.98 0.59ZM8.01 0.59C8.49 0.59 8.9 1.02 8.9 1.53L8.9 7.8C8.9 8.34 8.49 8.74 8.01 8.74L0.89 8.74C0.37 8.74 0 8.34 0 7.8L0 1.53C0 1.02 0.37 0.59 0.89 0.59L8.01 0.59ZM0 10.93C0 10.42 0.37 9.99 0.89 9.99L8.01 9.99C8.49 9.99 8.9 10.42 8.9 10.93L8.9 17.2C8.9 17.75 8.49 18.14 8.01 18.14L0.89 18.14C0.37 18.14 0 17.75 0 17.2L0 10.93ZM10.98 18.14C10.46 18.14 10.09 17.75 10.09 17.2L10.09 10.93C10.09 10.42 10.46 9.99 10.98 9.99L18.1 9.99C18.59 9.99 19 10.42 19 10.93L19 17.2C19 17.75 18.59 18.14 18.1 18.14L10.98 18.14Z" fill="#65646A" fill-opacity="1.000000" fill-rule="nonzero"/>
	</g>
</svg>

