<svg width="18.693848" height="14.255615" viewBox="0 0 18.6938 14.2556" fill="none" xmlns="http://www.w3.org/2000/svg" xmlns:xlink="http://www.w3.org/1999/xlink">
	<desc>
			Created with Pixso.
	</desc>
	<defs/>
	<path id="path" d="M18.44 7.75L12.2 13.99C11.65 14.54 10.68 14.17 10.68 13.35L10.68 9.79L5.64 9.79C5.12 9.79 4.75 9.42 4.75 8.9L4.75 5.34C4.75 4.86 5.12 4.45 5.64 4.45L10.68 4.45L10.68 0.89C10.68 0.11 11.61 -0.3 12.2 0.25L18.44 6.49C18.77 6.86 18.77 7.42 18.44 7.75ZM7.12 13.8C7.12 14.06 6.9 14.25 6.67 14.25L3.56 14.25C1.59 14.25 0 12.65 0 10.68L0 3.56C0 1.59 1.59 0 3.56 0L6.67 0C6.9 0 7.12 0.22 7.12 0.44L7.12 1.92C7.12 2.18 6.9 2.37 6.67 2.37L3.56 2.37C2.89 2.37 2.37 2.93 2.37 3.56L2.37 10.68C2.37 11.35 2.89 11.87 3.56 11.87L6.67 11.87C6.9 11.87 7.12 12.09 7.12 12.32L7.12 13.8Z" fill="#65646A" fill-opacity="1.000000" fill-rule="nonzero"/>
</svg>
