<svg width="12.250000" height="14.000000" viewBox="0 0 12.25 14" fill="none" xmlns="http://www.w3.org/2000/svg">
	<desc>
			Created with Pixso.
	</desc>
	<defs/>
	<path id="path" d="M10.93 6.12L10.28 6.12L10.28 4.15C10.28 1.88 8.39 0 6.12 0C3.82 0 1.96 1.88 1.96 4.15L1.96 6.12L1.31 6.12C0.57 6.12 0 6.72 0 7.43L0 12.68C0 13.42 0.57 14 1.31 14L10.93 14C11.64 14 12.25 13.42 12.25 12.68L12.25 7.43C12.25 6.72 11.64 6.12 10.93 6.12ZM8.09 6.12L4.15 6.12L4.15 4.15C4.15 3.08 5.03 2.18 6.12 2.18C7.19 2.18 8.09 3.08 8.09 4.15L8.09 6.12Z" fill="#FFFFFF" fill-opacity="1.000000" fill-rule="nonzero"/>
</svg>