<svg width="18.406250" height="18.406250" viewBox="0 0 18.4062 18.4062" fill="none" xmlns="http://www.w3.org/2000/svg" xmlns:xlink="http://www.w3.org/1999/xlink">
	<desc>
			Created with Pixso.
	</desc>
	<defs/>
	<path id="path" d="M9.2 3.56C11.16 3.56 12.76 5.15 12.76 7.12C12.76 9.09 11.16 10.68 9.2 10.68C7.23 10.68 5.64 9.09 5.64 7.12C5.64 5.15 7.23 3.56 9.2 3.56ZM9.2 8.9C10.16 8.9 10.98 8.12 10.98 7.12C10.98 6.16 10.16 5.34 9.2 5.34C8.2 5.34 7.42 6.16 7.42 7.12C7.42 8.12 8.2 8.9 9.2 8.9ZM9.2 0C14.28 0 18.4 4.11 18.4 9.2C18.4 14.28 14.28 18.4 9.2 18.4C4.11 18.4 0 14.28 0 9.2C0 4.11 4.11 0 9.2 0ZM9.2 16.62C11.02 16.62 12.72 15.95 14.02 14.84C13.47 13.99 12.5 13.43 11.42 13.39C10.65 13.61 9.9 13.73 9.2 13.73C8.46 13.73 7.71 13.61 6.93 13.39C5.86 13.39 4.89 13.99 4.34 14.84C5.64 15.95 7.34 16.62 9.2 16.62ZM15.21 13.5C16.1 12.32 16.62 10.83 16.62 9.2C16.62 5.12 13.28 1.78 9.2 1.78C5.08 1.78 1.78 5.12 1.78 9.2C1.78 10.83 2.26 12.32 3.15 13.5C4.04 12.35 5.45 11.57 7.05 11.57C7.42 11.57 8.01 11.94 9.2 11.94C10.35 11.94 10.94 11.57 11.31 11.57C12.91 11.57 14.32 12.35 15.21 13.5Z" fill="#65646A" fill-opacity="1.000000" fill-rule="nonzero"/>
</svg>
