<svg width="19.842773" height="19.007324" viewBox="0 0 19.8428 19.0073" fill="none" xmlns="http://www.w3.org/2000/svg" xmlns:xlink="http://www.w3.org/1999/xlink">
	<desc>
			Created with Pixso.
	</desc>
	<defs/>
	<path id="path" d="M18.84 6.36L13.42 5.58L10.97 0.65C10.57 -0.2 9.3 -0.24 8.86 0.65L6.45 5.58L0.99 6.36C0.03 6.51 -0.34 7.7 0.36 8.4L4.26 12.23L3.33 17.61C3.18 18.57 4.22 19.32 5.07 18.87L9.93 16.31L14.76 18.87C15.61 19.32 16.65 18.57 16.5 17.61L15.58 12.23L19.47 8.4C20.18 7.7 19.81 6.51 18.84 6.36ZM13.65 11.6L14.54 16.72L9.93 14.31L5.3 16.72L6.19 11.6L2.44 7.96L7.6 7.22L9.93 2.54L12.24 7.22L17.39 7.96L13.65 11.6Z" fill="#65646A" fill-opacity="1.000000" fill-rule="nonzero"/>
</svg>
